<?xml version="1.0" encoding="utf-8"?>
<!-- Generator: Adobe Illustrator 16.0.0, SVG Export Plug-In . SVG Version: 6.00 Build 0)  -->
<!DOCTYPE svg PUBLIC "-//W3C//DTD SVG 1.1//EN" "http://www.w3.org/Graphics/SVG/1.1/DTD/svg11.dtd">
<svg version="1.1" id="Layer_1" xmlns="http://www.w3.org/2000/svg" xmlns:xlink="http://www.w3.org/1999/xlink" x="0px" y="0px"
	 width="1029.769px" height="637.073px" viewBox="0 0 1029.769 637.073" enable-background="new 0 0 1029.769 637.073"
	 xml:space="preserve">
<g>
	<path fill="#00AEEF" d="M125.863,272.01v-4.608v-16.761v-19.544c0-8.745,8.938-15.836,19.962-15.836h40.744v-36.275
		c0-5.843-6.284-10.586-14.036-10.586H46.219c-7.754,0-14.036,4.743-14.036,10.586v95.28c0,5.845,6.281,10.586,14.036,10.586h79.239
		c0.485-2.409,1.05-4.79,1.778-7.102C126.361,275.965,125.863,274.036,125.863,272.01z"/>
	<path fill="#00AEEF" d="M354.187,274.266v-95.28c0-5.843-6.284-10.586-14.036-10.586H213.837c-7.752,0-14.037,4.743-14.037,10.586
		v36.275h39.174c11.025,0,19.963,7.091,19.963,15.836v20.687v16.768v3.458c0,1.234-0.194,2.427-0.533,3.581
		c1.053,2.992,1.858,6.098,2.494,9.261h79.252C347.902,284.852,354.187,280.11,354.187,274.266z"/>
	<path fill="#00AEEF" d="M124.049,298.54c0-0.156,0.017-0.303,0.017-0.458H46.219c-7.754,0-14.036,4.741-14.036,10.591v95.274
		c0,5.848,6.281,10.59,14.036,10.59h126.314c7.752,0,14.036-4.742,14.036-10.59v-36.593
		C151.49,364.024,124.049,334.492,124.049,298.54z"/>
	<path fill="#00AEEF" d="M199.8,367.354v36.593c0,5.848,6.285,10.59,14.037,10.59H340.15c7.752,0,14.036-4.742,14.036-10.59v-95.274
		c0-5.85-6.284-10.591-14.036-10.591h-77.849c0,0.155,0.018,0.302,0.018,0.458C262.319,334.492,234.877,364.024,199.8,367.354z"/>
	<path fill="#414042" d="M252.337,297.129c-0.027-3.88-0.455-7.656-1.196-11.324c-0.55-2.707-1.238-5.363-2.139-7.925
		c0.291-0.988,0.455-2.01,0.455-3.066v-2.959c-0.736,0.515-1.503,1.004-2.265,1.5c-8.669,5.63-19.001,9.923-30.393,12.45
		c-7.472,1.658-15.394,2.563-23.615,2.563s-16.141-0.905-23.614-2.563c-11.392-2.527-21.723-6.82-30.393-12.45
		c-1.239-0.804-2.445-1.629-3.612-2.484v3.943c0,1.735,0.428,3.387,1.177,4.913c-0.625,1.979-1.107,4.017-1.522,6.078
		c-0.739,3.666-1.166,7.446-1.192,11.324c0,0.132-0.014,0.26-0.014,0.393c0,30.77,23.486,56.044,53.509,58.896
		c1.864,0.175,3.752,0.274,5.662,0.274c1.91,0,3.798-0.1,5.662-0.274c30.023-2.853,53.508-28.127,53.508-58.896
		C252.355,297.389,252.342,297.261,252.337,297.129z"/>
	<path fill="#414042" d="M232.374,226.245h-33.527h-11.324h-34.872c-9.436,0-17.086,6.069-17.086,13.554v16.726
		c3.041,2.23,6.316,4.29,9.81,6.148c11.982,6.372,26.45,10.393,42.148,11.183c1.873,0.096,3.757,0.166,5.662,0.166
		c1.905,0,3.79-0.07,5.662-0.166c15.698-0.79,30.167-4.812,42.149-11.183c2.979-1.585,5.811-3.309,8.461-5.168v-17.706
		C249.458,232.314,241.81,226.245,232.374,226.245z M193.185,263.615c-13.073,0-24.922-5.146-33.717-13.48
		c8.795-8.334,20.644-13.481,33.717-13.481c13.076,0,24.924,5.147,33.719,13.481C218.109,258.469,206.26,263.615,193.185,263.615z"
		/>
	<path fill="#414042" d="M198.847,242.658c-1.581-1.199-3.526-1.939-5.662-1.939c-2.134,0-4.081,0.74-5.662,1.939
		c-2.267,1.719-3.752,4.412-3.752,7.477c0,3.063,1.485,5.757,3.752,7.476c1.581,1.2,3.528,1.938,5.662,1.938
		c2.136,0,4.082-0.738,5.662-1.938c2.268-1.719,3.752-4.413,3.752-7.476C202.599,247.07,201.114,244.376,198.847,242.658z"/>
	<g>
		<g>
			<path fill="#00AEEF" d="M469.736,326.685l25.166-70.57h28.187l24.744,70.57H520.56l-2.317-8.858h-19.124l-2.104,8.858H469.736z
				 M503.411,301.028h10.471l-2.109-8.014c-1.078-3.889-1.805-7.005-2.182-9.347c-0.416-2.017-0.654-4.054-0.698-6.115H508.4
				c-0.096,1.921-0.307,3.958-0.632,6.115c-0.234,1.123-0.542,2.459-0.914,4.006c-0.372,1.546-0.797,3.324-1.269,5.341
				L503.411,301.028z"/>
			<path fill="#00AEEF" d="M559.672,326.685v-47.517h-14.125v-23.053h53.555v23.053h-14.126v47.517H559.672z"/>
			<path fill="#00AEEF" d="M655.978,284.158c-2.438-2.295-4.807-3.957-7.098-4.99c-2.39-1.124-4.923-1.687-7.595-1.687
				c-4.075,0-7.401,1.29-9.978,3.865c-2.534,2.531-3.798,5.928-3.798,10.193c0,4.171,1.221,7.475,3.654,9.908
				c2.391,2.486,5.6,3.727,9.631,3.727c2.291,0,4.781-0.516,7.453-1.546c2.386-0.984,5.153-2.648,8.289-4.991l-0.841,26.499
				c-2.767,1.174-5.529,2.016-8.297,2.531c-2.763,0.561-5.529,0.844-8.293,0.844c-3.563,0-6.863-0.374-9.908-1.126
				c-3.14-0.749-5.998-1.851-8.575-3.305c-6.235-3.513-10.964-8.058-14.199-13.634c-3.187-5.482-4.781-11.786-4.781-18.907
				c0-5.2,0.914-10.099,2.746-14.691c1.871-4.545,4.517-8.505,7.938-11.88c3.47-3.467,7.522-6.092,12.16-7.871
				c4.686-1.78,9.68-2.672,14.971-2.672c2.906,0,5.721,0.307,8.436,0.916c2.72,0.561,5.413,1.45,8.085,2.669V284.158z"/>
			<path fill="#00AEEF" d="M665.397,326.685v-70.57h25.372v23.475h15.396v-23.475h25.372v70.57h-25.372v-24.883h-15.396v24.883
				H665.397z"/>
			<path fill="#00AEEF" d="M810.542,326.685l-3.096-27.976c-0.135-1.03-0.243-2.085-0.313-3.162
				c-0.069-1.079-0.156-2.157-0.246-3.234c-0.188-1.547-0.352-3.702-0.494-6.468c-0.281,1.969-0.701,4.126-1.265,6.468
				c-0.516,2.203-1.147,4.615-1.893,7.239l-8.159,27.133h-15.039l-8.086-27.133c-0.986-3.232-1.641-5.647-1.965-7.239
				c-0.61-2.718-1.01-4.873-1.195-6.468c-0.14,1.126-0.251,2.229-0.317,3.305c-0.068,1.078-0.154,2.134-0.246,3.163
				c-0.143,1.545-0.328,3.68-0.563,6.396l-3.022,27.976H739.76l12.021-70.57h26.147l5.059,17.43c0.237,0.938,0.472,1.758,0.701,2.46
				c2.157,7.639,3.447,13.684,3.872,18.134h0.488c0.329-2.952,0.889-6.115,1.689-9.488c0.415-1.688,0.879-3.479,1.368-5.376
				c0.493-1.899,1.066-3.902,1.719-6.012l5.276-17.148h26.143l11.178,70.57H810.542z"/>
			<path fill="#00AEEF" d="M842.172,326.685l25.165-70.57h28.183l24.744,70.57h-27.273l-2.321-8.858h-19.114l-2.114,8.858H842.172z
				 M875.838,301.028h10.475l-2.108-8.014c-1.078-3.889-1.806-7.005-2.179-9.347c-0.424-2.017-0.658-4.054-0.706-6.115h-0.488
				c-0.096,1.921-0.304,3.958-0.633,6.115c-0.239,1.123-0.541,2.459-0.913,4.006c-0.377,1.546-0.802,3.324-1.266,5.341
				L875.838,301.028z"/>
			<path fill="#00AEEF" d="M927.089,326.685v-70.57h24.883l21.926,36.9c-0.281-1.592-0.49-3.396-0.628-5.413
				c-0.095-2.716-0.143-5.315-0.143-7.802v-23.685h24.458v70.57h-25.091l-21.648-36.692c0.23,2.109,0.42,3.822,0.559,5.132
				c0.144,1.827,0.213,3.841,0.213,6.045v25.516H927.089z"/>
		</g>
		<polygon fill="#00AEEF" points="452.276,256.099 445.183,278.027 444.55,278.027 436.262,256.099 418.352,256.099 
			409.994,278.027 409.43,278.027 402.268,256.099 376.839,256.099 397.422,326.663 419.547,326.663 426.853,311.552 
			427.693,311.552 434.998,326.663 457.122,326.663 477.774,256.099 		"/>
	</g>
</g>
</svg>
