<?xml version="1.0" encoding="utf-8"?>
<!-- Generator: Adobe Illustrator 16.0.0, SVG Export Plug-In . SVG Version: 6.00 Build 0)  -->
<!DOCTYPE svg PUBLIC "-//W3C//DTD SVG 1.1//EN" "http://www.w3.org/Graphics/SVG/1.1/DTD/svg11.dtd">
<svg version="1.1" id="Layer_1" xmlns="http://www.w3.org/2000/svg" xmlns:xlink="http://www.w3.org/1999/xlink" x="0px" y="0px"
	 width="1029.769px" height="637.073px" viewBox="0 0 1029.769 637.073" enable-background="new 0 0 1029.769 637.073"
	 xml:space="preserve">
<g>
	<path fill="#00AEEF" d="M391.115,282.759v-8.471v-30.811v-35.932c0-16.078,16.433-29.115,36.698-29.115h74.905v-66.688
		c0-10.744-11.552-19.461-25.803-19.461H244.693c-14.255,0-25.803,8.718-25.803,19.461v175.165
		c0,10.748,11.548,19.466,25.803,19.466h145.678c0.892-4.435,1.931-8.806,3.268-13.057
		C392.031,290.036,391.115,286.485,391.115,282.759z"/>
	<path fill="#00AEEF" d="M810.879,286.907V111.743c0-10.744-11.552-19.461-25.803-19.461H552.851
		c-14.251,0-25.807,8.718-25.807,19.461v66.688h72.022c20.266,0,36.698,13.037,36.698,29.115v38.034v30.827v6.353
		c0,2.269-0.357,4.466-0.979,6.584c1.935,5.501,3.415,11.209,4.59,17.029h145.701C799.328,306.373,810.879,297.655,810.879,286.907z
		"/>
	<path fill="#00AEEF" d="M387.779,331.539c0-0.287,0.032-0.558,0.032-0.844H244.693c-14.255,0-25.803,8.718-25.803,19.465v175.159
		c0,10.756,11.548,19.474,25.803,19.474h232.222c14.25,0,25.803-8.718,25.803-19.474v-67.274
		C438.23,451.923,387.779,397.635,387.779,331.539z"/>
	<path fill="#00AEEF" d="M527.044,458.045v67.274c0,10.756,11.556,19.474,25.807,19.474h232.226
		c14.251,0,25.803-8.718,25.803-19.474V350.16c0-10.747-11.552-19.465-25.803-19.465H641.951c0.004,0.286,0.036,0.557,0.036,0.844
		C641.987,397.635,591.535,451.923,527.044,458.045z"/>
	<path fill="#414042" d="M623.635,328.943c-0.048-7.133-0.84-14.076-2.201-20.819c-1.007-4.976-2.273-9.864-3.929-14.569
		c0.529-1.815,0.836-3.694,0.836-5.637v-5.446c-1.354,0.947-2.763,1.847-4.164,2.763c-15.938,10.35-34.938,18.239-55.881,22.889
		c-13.737,3.05-28.299,4.714-43.414,4.714s-29.676-1.664-43.414-4.714c-20.942-4.649-39.938-12.539-55.877-22.889
		c-2.277-1.481-4.494-2.993-6.64-4.57v7.253c0,3.185,0.784,6.226,2.161,9.028c-1.146,3.638-2.034,7.388-2.798,11.177
		c-1.357,6.735-2.142,13.687-2.189,20.819c0,0.239-0.028,0.478-0.028,0.717c0,56.573,43.179,103.036,98.375,108.283
		c3.428,0.318,6.898,0.501,10.41,0.501c3.511,0,6.982-0.183,10.41-0.501c55.196-5.247,98.375-51.71,98.375-108.283
		C623.667,329.421,623.639,329.183,623.635,328.943z"/>
	<path fill="#414042" d="M586.933,198.625h-61.641h-20.819h-64.109c-17.348,0-31.412,11.158-31.412,24.919v30.753
		c5.589,4.1,11.611,7.882,18.032,11.297c22.029,11.719,48.628,19.107,77.488,20.564c3.443,0.175,6.907,0.302,10.41,0.302
		s6.966-0.127,10.41-0.302c28.86-1.457,55.459-8.845,77.492-20.564c5.478-2.914,10.68-6.083,15.557-9.498v-32.552
		C618.341,209.783,604.277,198.625,586.933,198.625z M514.883,267.33c-24.036,0-45.818-9.466-61.987-24.784
		c16.169-15.324,37.952-24.786,61.987-24.786c24.04,0,45.822,9.462,61.991,24.786C560.705,257.864,538.922,267.33,514.883,267.33z"
		/>
	<path fill="#414042" d="M525.292,228.799c-2.906-2.205-6.485-3.563-10.41-3.563c-3.925,0-7.503,1.357-10.41,3.563
		c-4.168,3.161-6.898,8.113-6.898,13.748c0,5.628,2.73,10.581,6.898,13.741c2.906,2.206,6.484,3.567,10.41,3.567
		c3.925,0,7.503-1.361,10.41-3.567c4.167-3.161,6.898-8.113,6.898-13.741C532.191,236.912,529.46,231.96,525.292,228.799z"/>
</g>
</svg>
